<?xml version="1.0" encoding="utf-8"?>
<!-- Generator: Adobe Illustrator 27.2.0, SVG Export Plug-In . SVG Version: 6.00 Build 0)  -->
<svg version="1.1" id="Layer_1" xmlns="http://www.w3.org/2000/svg" xmlns:xlink="http://www.w3.org/1999/xlink" x="0px" y="0px"
	 viewBox="0 0 512 512" style="enable-background:new 0 0 512 512;" xml:space="preserve">
<style type="text/css">
	.st0{fill:#FF6B6B;}
</style>
<g>
	<path class="st0" d="M288.02,359.22c-18.27,19.02-41.03,29.15-68.24,27.72c-72.54-3.82-98.33-69.13-81.89-152.23
		c14.15-71.54,67.05-124.18,125.73-120.52c22.86,1.43,41.03,11.36,53.97,26.84c3.82-10.96,15.48-17.36,26.94-14.44
		c12.11,3.08,19.43,15.38,16.34,27.48l-9.8,38.41l-26.75,130.79c1.74,21.01,13.46,29.27,36.23,29.27
		c48.85,0,87.77-47.48,87.77-129.08c0-100.46-67.17-168.02-167.2-168.02c-116.17,0-217.43,93.17-217.43,221.48
		c0,111.78,74.57,179.64,173.63,179.64c58.53,0,99.51-11.73,153.24-47.87c10.37-6.97,24.43-4.23,31.4,6.12
		c6.98,10.35,4.23,24.4-6.13,31.37c-61.44,41.32-111.24,55.58-178.52,55.58c-123.16,0-218.88-87.11-218.88-224.84
		c0-154.15,122.32-266.68,262.68-266.68c125.1,0,212.45,87.87,212.45,213.22c0,104.79-56.95,174.28-133.02,174.28
		C327.71,397.73,301.24,384.73,288.02,359.22z M293.41,236.72c8.68-43.52-6.28-76.4-32.6-78.04c-33.4-2.08-68.72,33.06-78.92,84.63
		c-11.92,60.26,2.63,97.13,40.27,99.11C256.53,344.23,279.85,304.71,293.41,236.72z"/>
	<path class="st0" d="M288.02,359.22l-7.39-7.09c-7.78,8.1-16.25,14.22-25.46,18.36c-9.22,4.14-19.22,6.33-30.35,6.34
		c-1.48,0-2.98-0.04-4.51-0.12c-13.44-0.71-24.74-3.68-34.21-8.41c-14.19-7.11-24.57-18.14-31.79-32.97
		c-7.18-14.81-10.96-33.48-10.95-54.89c0-13.62,1.52-28.32,4.57-43.75c6.47-32.75,21.55-61.16,41.23-81.09
		c19.73-19.97,43.71-31.36,68.69-31.36c1.7,0,3.41,0.05,5.12,0.16c10.13,0.64,18.95,3.11,26.69,7.05
		c7.73,3.95,14.4,9.38,20.06,16.14c2.37,2.83,6.06,4.17,9.69,3.51c3.63-0.66,6.62-3.22,7.83-6.7c1.71-4.98,6.52-8.28,11.67-8.28
		c1.01,0,2.03,0.12,3.08,0.39c2.84,0.73,5.11,2.31,6.76,4.45c1.64,2.14,2.57,4.78,2.57,7.51c0,1-0.12,2.02-0.39,3.07l-9.79,38.41
		l-0.11,0.48l-26.75,130.79c-0.19,0.94-0.25,1.94-0.17,2.9c0.51,6.13,1.77,11.76,4.08,16.84c1.73,3.8,4.07,7.27,6.98,10.17
		c4.36,4.39,9.86,7.38,15.82,9.16c5.98,1.79,12.46,2.49,19.56,2.49c13.87,0.01,27.23-3.4,39.22-9.94
		c18.01-9.8,32.79-26.46,42.95-48.37c10.17-21.94,15.83-49.2,15.84-81.01c0.04-52.48-17.67-97.38-49.07-128.9
		c-31.36-31.57-76.08-49.4-128.37-49.35c-60.84,0-117.77,24.4-159.47,65.58c-41.72,41.16-68.22,99.27-68.2,166.15
		c-0.05,58.14,19.54,105.99,52.68,138.99c33.1,33.03,79.35,50.92,131.19,50.89c29.93,0.01,55.97-3.02,81.42-10.83
		c25.45-7.81,50.11-20.33,77.54-38.78c2.15-1.44,4.51-2.11,6.9-2.11c4.02,0.02,7.9,1.9,10.3,5.46c1.44,2.15,2.1,4.49,2.11,6.88
		c-0.02,4-1.9,7.87-5.47,10.27c-30.13,20.25-56.96,33.6-84.35,41.99c-27.4,8.37-55.52,11.84-88.45,11.84
		c-59.18-0.03-111.12-20.84-148.41-57.8c-37.26-36.99-60.18-90.29-60.22-156.8c0.02-74.34,29.41-138.27,75.65-183.85
		c46.26-45.56,109.36-72.59,176.79-72.59C341.28,20.52,391.53,41.49,427,77.07c35.43,35.61,56.3,86.08,56.33,146.39
		c0.01,50.56-13.76,91.87-35.82,120.14c-11.03,14.15-24.11,25.08-38.72,32.51c-14.62,7.42-30.78,11.38-48.23,11.38
		c-15.08,0-28.25-2.99-38.89-8.53c-10.65-5.57-18.87-13.57-24.54-24.45c-1.51-2.92-4.37-4.95-7.63-5.42
		c-3.25-0.47-6.57,0.67-8.85,3.04L288.02,359.22l-9.09,4.71c7.55,14.62,19.17,25.89,33.27,33.19c14.11,7.34,30.59,10.85,48.35,10.85
		c20.58,0.01,40.06-4.72,57.51-13.61c26.21-13.32,47.75-35.86,62.6-65.07c14.86-29.23,23.14-65.15,23.14-105.84
		c0.03-65.04-22.77-121.18-62.3-160.84C402.02,22.92,346.05-0.04,281.12,0C208.18,0,139.94,29.24,89.95,78.48
		C39.94,127.7,8.17,197.11,8.19,276.92c-0.04,71.22,24.89,130.34,66.28,171.34c41.35,41.03,98.86,63.77,162.83,63.74
		c34.34,0.01,64.76-3.66,94.44-12.74c29.68-9.07,58.47-23.51,89.79-44.58c9.41-6.33,14.53-16.73,14.52-27.26
		c0.01-6.3-1.83-12.73-5.61-18.33c-6.34-9.4-16.75-14.51-27.28-14.5c-6.3-0.01-12.73,1.83-18.33,5.6
		c-26.31,17.69-49.01,29.1-72.11,36.19c-23.11,7.08-46.81,9.93-75.41,9.93c-47.22-0.03-87.78-16.07-116.73-44.91
		c-28.91-28.88-46.61-70.85-46.66-124.49c0.02-61.44,24.15-114.07,62.11-151.57C174,87.86,225.79,65.68,281.12,65.68
		c47.74,0.04,86.63,15.99,113.85,43.32c27.19,27.37,43.07,66.48,43.11,114.46c0.01,39.2-9.4,69.37-23.64,89.17
		c-7.12,9.92-15.42,17.3-24.46,22.22c-9.05,4.92-18.87,7.44-29.43,7.45c-5.07,0-9.26-0.47-12.49-1.3c-2.43-0.62-4.33-1.42-5.82-2.33
		c-2.23-1.39-3.67-2.9-4.99-5.35c-1.29-2.44-2.32-5.97-2.73-10.89l-10.2,0.85l10.03,2.05l26.7-130.56l9.73-38.17
		c0.69-2.7,1.02-5.43,1.02-8.12c0-7.36-2.48-14.35-6.8-19.98c-4.31-5.63-10.56-9.95-17.96-11.82c-2.7-0.69-5.44-1.02-8.13-1.02
		c-13.78,0.01-26.33,8.66-31.01,22.01l9.67,3.37l7.86-6.57c-7.29-8.72-16.17-16-26.47-21.25c-10.3-5.25-21.98-8.46-34.72-9.25
		c-2.14-0.13-4.28-0.2-6.4-0.2c-31.37,0-60.52,14.37-83.27,37.45c-22.79,23.12-39.52,55.06-46.74,91.5
		c-3.28,16.59-4.96,32.59-4.96,47.73c0.01,31.66,7.33,59.8,23.48,80.91c8.06,10.52,18.34,19.17,30.6,25.27
		c12.26,6.12,26.44,9.7,42.28,10.53c1.87,0.1,3.73,0.15,5.58,0.15c13.86,0.01,26.9-2.81,38.75-8.14
		c11.86-5.32,22.49-13.12,31.84-22.86L288.02,359.22l-9.09,4.71L288.02,359.22z M293.41,236.72l10.04,2
		c1.8-9.03,2.67-17.7,2.67-25.89c-0.02-17.09-3.72-32.15-11.21-43.82c-3.75-5.81-8.5-10.76-14.2-14.35
		c-5.68-3.6-12.29-5.77-19.26-6.2c-1.16-0.07-2.31-0.11-3.47-0.11c-9.96,0-19.77,2.65-28.88,7.31
		c-13.69,7.01-25.94,18.46-35.84,33.08c-9.89,14.63-17.44,32.49-21.42,52.58c-2.83,14.3-4.26,27.49-4.26,39.49
		c0.02,20.22,4,37.35,13.17,50.33c4.57,6.45,10.5,11.74,17.47,15.38c6.97,3.66,14.89,5.67,23.4,6.12c0.94,0.05,1.87,0.07,2.79,0.07
		c10.32,0.03,20.17-3.17,28.64-8.93c12.74-8.66,22.59-22.45,30.75-40.1c8.14-17.7,14.57-39.49,19.66-64.97L293.41,236.72l-10.04-2
		c-6.45,32.53-15.27,57.99-25.66,74.35c-5.17,8.2-10.65,14.06-16.13,17.75c-5.51,3.68-10.92,5.39-17.17,5.42
		c-0.57,0-1.14-0.01-1.71-0.05c-6.01-0.32-10.89-1.67-14.96-3.8c-6.06-3.22-10.67-8.21-14.18-16.03c-3.46-7.79-5.51-18.4-5.5-31.55
		c0-10.37,1.25-22.28,3.87-35.52c4.6-23.34,14.76-42.87,27.05-56.21c6.14-6.68,12.78-11.8,19.43-15.19
		c6.65-3.4,13.26-5.07,19.57-5.07c0.73,0,1.46,0.02,2.19,0.07c3.64,0.24,6.72,1.27,9.61,3.08c4.29,2.7,8.24,7.4,11.16,14.34
		c2.92,6.91,4.7,15.96,4.7,26.51c0,6.74-0.72,14.09-2.27,21.89L293.41,236.72z"/>
</g>
</svg>
